<svg xmlns="http://www.w3.org/2000/svg" width="900" height="560" viewBox="0 0 900 560">
<style>text{font:16px monospace;fill:#e8eefc}.box{fill:#17324d;stroke:#56cfe1;stroke-width:2}.arrow{stroke:#ffca3a;stroke-width:2;marker-end:url(#a)}</style><defs><marker id="a" markerWidth="8" markerHeight="8" refX="7" refY="4" orient="auto"><path d="M0,0 L8,4 L0,8 z" fill="#ffca3a"/></marker></defs><rect width="100%" height="100%" fill="#101522"/>
<g class="arrow"><path d="M450 60V95"/><path d="M450 140V175"/><path d="M450 220V255"/><path d="M450 300V335"/><path d="M450 380V415"/><path d="M450 460V495"/><path d="M600 118H720"/></g>
<g class="box"><rect x="325" y="20" width="250" height="40"/><rect x="300" y="100" width="300" height="40"/><rect x="300" y="180" width="300" height="40"/><rect x="180" y="260" width="540" height="40"/><rect x="270" y="340" width="360" height="40"/><rect x="315" y="420" width="270" height="40"/><rect x="350" y="500" width="200" height="40"/><rect x="720" y="95" width="160" height="50"/></g>
<text x="390" y="47">Project JSON</text><text x="330" y="127">Loader / Validator / Session</text><text x="330" y="207">Tempo + Event Scheduling</text><text x="205" y="287">Tracks: voices → automation → persistent DSP</text><text x="300" y="367">Routing Graph + Effect Buses</text><text x="345" y="447">Mixer + Master</text><text x="425" y="527">WAV</text><text x="734" y="116">Diagnostics</text><text x="734" y="136">+ SVG views</text>
</svg>
