<svg xmlns="http://www.w3.org/2000/svg" width="920" height="328"><rect width="100%" height="100%" fill="white"/><text x="460" y="24" text-anchor="middle" font-family="sans-serif">Events from the score data</text><text x="8" y="69" font-family="sans-serif">kick</text><rect x="100.0" y="48" width="50.0" height="27" fill="#e76f51" stroke="white"/><rect x="150.0" y="48" width="50.0" height="27" fill="#edf2f4" stroke="white"/><rect x="200.0" y="48" width="50.0" height="27" fill="#edf2f4" stroke="white"/><rect x="250.0" y="48" width="50.0" height="27" fill="#edf2f4" stroke="white"/><rect x="300.0" y="48" width="50.0" height="27" fill="#e76f51" stroke="white"/><rect x="350.0" y="48" width="50.0" height="27" fill="#edf2f4" stroke="white"/><rect x="400.0" y="48" width="50.0" height="27" fill="#edf2f4" stroke="white"/><rect x="450.0" y="48" width="50.0" height="27" fill="#edf2f4" stroke="white"/><rect x="500.0" y="48" width="50.0" height="27" fill="#e76f51" stroke="white"/><rect x="550.0" y="48" width="50.0" height="27" fill="#edf2f4" stroke="white"/><rect x="600.0" y="48" width="50.0" height="27" fill="#edf2f4" stroke="white"/><rect x="650.0" y="48" width="50.0" height="27" fill="#edf2f4" stroke="white"/><rect x="700.0" y="48" width="50.0" height="27" fill="#e76f51" stroke="white"/><rect x="750.0" y="48" width="50.0" height="27" fill="#edf2f4" stroke="white"/><rect x="800.0" y="48" width="50.0" height="27" fill="#edf2f4" stroke="white"/><rect x="850.0" y="48" width="50.0" height="27" fill="#edf2f4" stroke="white"/><text x="8" y="101" font-family="sans-serif">clap</text><rect x="100.0" y="80" width="50.0" height="27" fill="#edf2f4" stroke="white"/><rect x="150.0" y="80" width="50.0" height="27" fill="#edf2f4" stroke="white"/><rect x="200.0" y="80" width="50.0" height="27" fill="#edf2f4" stroke="white"/><rect x="250.0" y="80" width="50.0" height="27" fill="#edf2f4" stroke="white"/><rect x="300.0" y="80" width="50.0" height="27" fill="#e76f51" stroke="white"/><rect x="350.0" y="80" width="50.0" height="27" fill="#edf2f4" stroke="white"/><rect x="400.0" y="80" width="50.0" height="27" fill="#edf2f4" stroke="white"/><rect x="450.0" y="80" width="50.0" height="27" fill="#edf2f4" stroke="white"/><rect x="500.0" y="80" width="50.0" height="27" fill="#edf2f4" stroke="white"/><rect x="550.0" y="80" width="50.0" height="27" fill="#edf2f4" stroke="white"/><rect x="600.0" y="80" width="50.0" height="27" fill="#edf2f4" stroke="white"/><rect x="650.0" y="80" width="50.0" height="27" fill="#edf2f4" stroke="white"/><rect x="700.0" y="80" width="50.0" height="27" fill="#e76f51" stroke="white"/><rect x="750.0" y="80" width="50.0" height="27" fill="#edf2f4" stroke="white"/><rect x="800.0" y="80" width="50.0" height="27" fill="#edf2f4" stroke="white"/><rect x="850.0" y="80" width="50.0" height="27" fill="#edf2f4" stroke="white"/><text x="8" y="133" font-family="sans-serif">hat</text><rect x="100.0" y="112" width="50.0" height="27" fill="#edf2f4" stroke="white"/><rect x="150.0" y="112" width="50.0" height="27" fill="#edf2f4" stroke="white"/><rect x="200.0" y="112" width="50.0" height="27" fill="#e76f51" stroke="white"/><rect x="250.0" y="112" width="50.0" height="27" fill="#edf2f4" stroke="white"/><rect x="300.0" y="112" width="50.0" height="27" fill="#e76f51" stroke="white"/><rect x="350.0" y="112" width="50.0" height="27" fill="#edf2f4" stroke="white"/><rect x="400.0" y="112" width="50.0" height="27" fill="#e76f51" stroke="white"/><rect x="450.0" y="112" width="50.0" height="27" fill="#edf2f4" stroke="white"/><rect x="500.0" y="112" width="50.0" height="27" fill="#e76f51" stroke="white"/><rect x="550.0" y="112" width="50.0" height="27" fill="#edf2f4" stroke="white"/><rect x="600.0" y="112" width="50.0" height="27" fill="#e76f51" stroke="white"/><rect x="650.0" y="112" width="50.0" height="27" fill="#edf2f4" stroke="white"/><rect x="700.0" y="112" width="50.0" height="27" fill="#e76f51" stroke="white"/><rect x="750.0" y="112" width="50.0" height="27" fill="#edf2f4" stroke="white"/><rect x="800.0" y="112" width="50.0" height="27" fill="#e76f51" stroke="white"/><rect x="850.0" y="112" width="50.0" height="27" fill="#edf2f4" stroke="white"/><text x="8" y="165" font-family="sans-serif">perc</text><rect x="100.0" y="144" width="50.0" height="27" fill="#edf2f4" stroke="white"/><rect x="150.0" y="144" width="50.0" height="27" fill="#edf2f4" stroke="white"/><rect x="200.0" y="144" width="50.0" height="27" fill="#edf2f4" stroke="white"/><rect x="250.0" y="144" width="50.0" height="27" fill="#e76f51" stroke="white"/><rect x="300.0" y="144" width="50.0" height="27" fill="#edf2f4" stroke="white"/><rect x="350.0" y="144" width="50.0" height="27" fill="#edf2f4" stroke="white"/><rect x="400.0" y="144" width="50.0" height="27" fill="#edf2f4" stroke="white"/><rect x="450.0" y="144" width="50.0" height="27" fill="#edf2f4" stroke="white"/><rect x="500.0" y="144" width="50.0" height="27" fill="#edf2f4" stroke="white"/><rect x="550.0" y="144" width="50.0" height="27" fill="#edf2f4" stroke="white"/><rect x="600.0" y="144" width="50.0" height="27" fill="#e76f51" stroke="white"/><rect x="650.0" y="144" width="50.0" height="27" fill="#edf2f4" stroke="white"/><rect x="700.0" y="144" width="50.0" height="27" fill="#edf2f4" stroke="white"/><rect x="750.0" y="144" width="50.0" height="27" fill="#edf2f4" stroke="white"/><rect x="800.0" y="144" width="50.0" height="27" fill="#edf2f4" stroke="white"/><rect x="850.0" y="144" width="50.0" height="27" fill="#e76f51" stroke="white"/><text x="8" y="197" font-family="sans-serif">bass</text><rect x="100.0" y="176" width="50.0" height="27" fill="#edf2f4" stroke="white"/><rect x="150.0" y="176" width="50.0" height="27" fill="#edf2f4" stroke="white"/><rect x="200.0" y="176" width="50.0" height="27" fill="#e76f51" stroke="white"/><rect x="250.0" y="176" width="50.0" height="27" fill="#edf2f4" stroke="white"/><rect x="300.0" y="176" width="50.0" height="27" fill="#edf2f4" stroke="white"/><rect x="350.0" y="176" width="50.0" height="27" fill="#edf2f4" stroke="white"/><rect x="400.0" y="176" width="50.0" height="27" fill="#e76f51" stroke="white"/><rect x="450.0" y="176" width="50.0" height="27" fill="#edf2f4" stroke="white"/><rect x="500.0" y="176" width="50.0" height="27" fill="#edf2f4" stroke="white"/><rect x="550.0" y="176" width="50.0" height="27" fill="#edf2f4" stroke="white"/><rect x="600.0" y="176" width="50.0" height="27" fill="#e76f51" stroke="white"/><rect x="650.0" y="176" width="50.0" height="27" fill="#edf2f4" stroke="white"/><rect x="700.0" y="176" width="50.0" height="27" fill="#edf2f4" stroke="white"/><rect x="750.0" y="176" width="50.0" height="27" fill="#edf2f4" stroke="white"/><rect x="800.0" y="176" width="50.0" height="27" fill="#e76f51" stroke="white"/><rect x="850.0" y="176" width="50.0" height="27" fill="#edf2f4" stroke="white"/><text x="8" y="229" font-family="sans-serif">chords</text><rect x="100.0" y="208" width="50.0" height="27" fill="#e76f51" stroke="white"/><rect x="150.0" y="208" width="50.0" height="27" fill="#edf2f4" stroke="white"/><rect x="200.0" y="208" width="50.0" height="27" fill="#edf2f4" stroke="white"/><rect x="250.0" y="208" width="50.0" height="27" fill="#edf2f4" stroke="white"/><rect x="300.0" y="208" width="50.0" height="27" fill="#edf2f4" stroke="white"/><rect x="350.0" y="208" width="50.0" height="27" fill="#edf2f4" stroke="white"/><rect x="400.0" y="208" width="50.0" height="27" fill="#edf2f4" stroke="white"/><rect x="450.0" y="208" width="50.0" height="27" fill="#edf2f4" stroke="white"/><rect x="500.0" y="208" width="50.0" height="27" fill="#edf2f4" stroke="white"/><rect x="550.0" y="208" width="50.0" height="27" fill="#edf2f4" stroke="white"/><rect x="600.0" y="208" width="50.0" height="27" fill="#edf2f4" stroke="white"/><rect x="650.0" y="208" width="50.0" height="27" fill="#edf2f4" stroke="white"/><rect x="700.0" y="208" width="50.0" height="27" fill="#edf2f4" stroke="white"/><rect x="750.0" y="208" width="50.0" height="27" fill="#edf2f4" stroke="white"/><rect x="800.0" y="208" width="50.0" height="27" fill="#edf2f4" stroke="white"/><rect x="850.0" y="208" width="50.0" height="27" fill="#edf2f4" stroke="white"/><text x="8" y="261" font-family="sans-serif">synth</text><rect x="100.0" y="240" width="50.0" height="27" fill="#edf2f4" stroke="white"/><rect x="150.0" y="240" width="50.0" height="27" fill="#edf2f4" stroke="white"/><rect x="200.0" y="240" width="50.0" height="27" fill="#e76f51" stroke="white"/><rect x="250.0" y="240" width="50.0" height="27" fill="#edf2f4" stroke="white"/><rect x="300.0" y="240" width="50.0" height="27" fill="#edf2f4" stroke="white"/><rect x="350.0" y="240" width="50.0" height="27" fill="#edf2f4" stroke="white"/><rect x="400.0" y="240" width="50.0" height="27" fill="#e76f51" stroke="white"/><rect x="450.0" y="240" width="50.0" height="27" fill="#edf2f4" stroke="white"/><rect x="500.0" y="240" width="50.0" height="27" fill="#edf2f4" stroke="white"/><rect x="550.0" y="240" width="50.0" height="27" fill="#edf2f4" stroke="white"/><rect x="600.0" y="240" width="50.0" height="27" fill="#e76f51" stroke="white"/><rect x="650.0" y="240" width="50.0" height="27" fill="#edf2f4" stroke="white"/><rect x="700.0" y="240" width="50.0" height="27" fill="#edf2f4" stroke="white"/><rect x="750.0" y="240" width="50.0" height="27" fill="#e76f51" stroke="white"/><rect x="800.0" y="240" width="50.0" height="27" fill="#edf2f4" stroke="white"/><rect x="850.0" y="240" width="50.0" height="27" fill="#edf2f4" stroke="white"/><text x="8" y="293" font-family="sans-serif">texture</text><rect x="100.0" y="272" width="50.0" height="27" fill="#e76f51" stroke="white"/><rect x="150.0" y="272" width="50.0" height="27" fill="#edf2f4" stroke="white"/><rect x="200.0" y="272" width="50.0" height="27" fill="#edf2f4" stroke="white"/><rect x="250.0" y="272" width="50.0" height="27" fill="#edf2f4" stroke="white"/><rect x="300.0" y="272" width="50.0" height="27" fill="#edf2f4" stroke="white"/><rect x="350.0" y="272" width="50.0" height="27" fill="#edf2f4" stroke="white"/><rect x="400.0" y="272" width="50.0" height="27" fill="#edf2f4" stroke="white"/><rect x="450.0" y="272" width="50.0" height="27" fill="#edf2f4" stroke="white"/><rect x="500.0" y="272" width="50.0" height="27" fill="#edf2f4" stroke="white"/><rect x="550.0" y="272" width="50.0" height="27" fill="#edf2f4" stroke="white"/><rect x="600.0" y="272" width="50.0" height="27" fill="#edf2f4" stroke="white"/><rect x="650.0" y="272" width="50.0" height="27" fill="#edf2f4" stroke="white"/><rect x="700.0" y="272" width="50.0" height="27" fill="#edf2f4" stroke="white"/><rect x="750.0" y="272" width="50.0" height="27" fill="#edf2f4" stroke="white"/><rect x="800.0" y="272" width="50.0" height="27" fill="#edf2f4" stroke="white"/><rect x="850.0" y="272" width="50.0" height="27" fill="#edf2f4" stroke="white"/></svg>
